# xmcd CD database file
#
# Track frame offsets:
#	150
#	20101
#	32349
#	48539
#	68824
#	102695
#	128779
#	146190
#	168321
#
# Disc length: 2590
# Revision: 2
# Processed by: cddbd v1.5.2PL0 Copyright (c) Steve Scherf et al.
# Submitted via: cddb.el 1.0 (Emacs 24.0.50.4)
#
DISCID=820a1c09
DTITLE=Baby Dee - Goes Down to Amsterdam (1)
DYEAR=2011
DGENRE=Ballad
TTITLE0=The Robin's Tiny Throat
TTITLE1=Love's Small Song
TTITLE2=Book Of Songs For Anne Marie
TTITLE3=Lilacs
TTITLE4=Safe Inside The Day
TTITLE5=The Earlie King
TTITLE6=Compass Of The Light
TTITLE7=When I Get Home
TTITLE8=So Bad
EXTD=
EXTT0=
EXTT1=
EXTT2=
EXTT3=
EXTT4=
EXTT5=
EXTT6=
EXTT7=
EXTT8=
PLAYORDER=
